<svg width="40" height="40" viewBox="0 0 40 40" fill="none" xmlns="http://www.w3.org/2000/svg" role="img" aria-label="абхазхаб">
  <rect width="40" height="40" rx="10" fill="#ECFDF5"/>
  <g stroke="#047857" stroke-width="3" stroke-linecap="round">
    <path d="M20 20V6"/>
    <path d="M20 20V34"/>
    <path d="M20 20H6"/>
    <path d="M20 20H34"/>
    <path d="M20 20L10.1 10.1"/>
    <path d="M20 20L29.9 10.1"/>
    <path d="M20 20L10.1 29.9"/>
    <path d="M20 20L29.9 29.9"/>
  </g>
  <g fill="#059669">
    <circle cx="20" cy="6" r="2.2"/>
    <circle cx="20" cy="34" r="2.2"/>
    <circle cx="6" cy="20" r="2.2"/>
    <circle cx="34" cy="20" r="2.2"/>
    <circle cx="10.1" cy="10.1" r="2.2"/>
    <circle cx="29.9" cy="10.1" r="2.2"/>
    <circle cx="10.1" cy="29.9" r="2.2"/>
    <circle cx="29.9" cy="29.9" r="2.2"/>
  </g>
  <circle cx="20" cy="20" r="7.5" fill="#FFFFFF" stroke="#065F46" stroke-width="2.5"/>
  <circle cx="20" cy="20" r="3.2" fill="#10B981"/>
</svg>
